<svg width="34" height="34" viewBox="0 0 34 34" fill="none" xmlns="http://www.w3.org/2000/svg">
<path d="M16.9997 0C7.61109 0 0 7.6392 0 17.0624C0 25.0641 5.48885 31.7785 12.8932 33.6226V22.2767H9.38789V17.0624H12.8932V14.8157C12.8932 9.00829 15.5119 6.31652 21.1925 6.31652C22.2696 6.31652 24.128 6.52878 24.8882 6.74035V11.4666C24.487 11.4243 23.79 11.4032 22.9244 11.4032C20.1371 11.4032 19.06 12.4631 19.06 15.2183V17.0624H24.6128L23.6588 22.2767H19.06V34C27.4776 32.9797 34 25.7861 34 17.0624C33.9993 7.6392 26.3882 0 16.9997 0Z" fill="white"/>
</svg>
