<svg width="28" height="29" viewBox="0 0 28 29" fill="none" xmlns="http://www.w3.org/2000/svg">
<path d="M26.3721 14.4174C26.3721 21.322 20.9162 26.9193 14.1861 26.9193C7.45588 26.9193 2 21.322 2 14.4174C2 7.51282 7.45588 1.91553 14.1861 1.91553C20.9162 1.91553 26.3721 7.51282 26.3721 14.4174Z" fill="white"/>
<path d="M10.124 14.4174L12.832 17.1956L18.2481 11.6392M26.3721 14.4174C26.3721 21.322 20.9162 26.9193 14.1861 26.9193C7.45588 26.9193 2 21.322 2 14.4174C2 7.51282 7.45588 1.91553 14.1861 1.91553C20.9162 1.91553 26.3721 7.51282 26.3721 14.4174Z" stroke="#CB965D" stroke-width="3.24961" stroke-linecap="round" stroke-linejoin="round"/>
</svg>
