<svg width="34" height="24" viewBox="0 0 34 24" fill="none" xmlns="http://www.w3.org/2000/svg">
<path d="M33.6613 5.1998C33.6613 5.1998 33.3293 2.85566 32.3066 1.82637C31.0117 0.47168 29.5641 0.465039 28.9 0.385351C24.1453 0.0400389 17.0066 0.0400391 17.0066 0.0400391H16.9934C16.9934 0.0400391 9.85469 0.0400389 5.1 0.385351C4.43594 0.465039 2.98828 0.47168 1.69336 1.82637C0.670703 2.85566 0.345312 5.1998 0.345312 5.1998C0.345312 5.1998 0 7.95566 0 10.7049V13.2814C0 16.0307 0.338672 18.7865 0.338672 18.7865C0.338672 18.7865 0.670703 21.1307 1.68672 22.16C2.98164 23.5146 4.68164 23.4682 5.43867 23.6143C8.16133 23.8732 17 23.9529 17 23.9529C17 23.9529 24.1453 23.9396 28.9 23.601C29.5641 23.5213 31.0117 23.5146 32.3066 22.16C33.3293 21.1307 33.6613 18.7865 33.6613 18.7865C33.6613 18.7865 34 16.0373 34 13.2814V10.7049C34 7.95566 33.6613 5.1998 33.6613 5.1998ZM13.4871 16.4092V6.85332L22.6711 11.6479L13.4871 16.4092Z" fill="white"/>
</svg>
