<svg width="169" height="60" viewBox="0 0 169 60" fill="none" xmlns="http://www.w3.org/2000/svg">
<path d="M65.2322 5.2453C62.1876 5.25521 60.0603 6.2172 58.8504 8.13124C57.6405 10.0354 57.0356 12.3263 57.0356 15.004C57.0356 17.6915 57.7942 19.9874 59.3116 21.8915C60.8289 23.7858 62.8025 24.7428 65.2322 24.7626H65.3066C67.6769 24.7626 69.6256 23.751 71.1529 21.7279C72.6603 19.7246 73.414 17.513 73.414 15.0932V15.004C73.3942 12.5345 72.7496 10.2932 71.4802 8.28C70.2107 6.25686 68.1281 5.2453 65.2322 5.2453ZM65.2322 3.93621H65.381C68.5843 3.93621 71.2868 4.91803 73.4884 6.88166C75.5413 8.71636 76.5677 11.1362 76.5677 14.1411C76.5677 14.4089 76.5578 14.6816 76.538 14.9593C76.3297 18.3709 75.1446 21.0188 72.9826 22.9031C70.8306 24.7775 68.2372 25.799 65.2025 25.9676C64.9744 25.9775 64.7463 25.9824 64.5182 25.9824C61.7612 25.9824 59.3215 25.0304 57.1992 23.1262C55.0174 21.1825 53.9265 18.6387 53.9265 15.4949C53.9265 15.3163 53.9314 15.1378 53.9414 14.9593C54.0604 11.5775 55.1513 8.90479 57.2141 6.94116C59.2868 4.97753 61.9595 3.97588 65.2322 3.93621Z" fill="#F5F5F5"/>
<path d="M91.3175 25.9973C88.2729 25.9973 85.5754 25.0254 83.225 23.0816C80.8746 21.1378 79.6994 18.4502 79.6994 15.0188C79.6994 11.6767 80.8399 8.99901 83.1208 6.98579C85.4117 4.96265 88.144 3.95108 91.3175 3.95108C92.458 3.95108 93.6679 4.08001 94.9473 4.33786C96.2365 4.58579 97.4613 5.08166 98.6216 5.82546L98.2646 8.94942C98.2249 9.12793 98.1258 9.21719 97.9671 9.21719H97.9225C97.8035 9.20727 97.6745 9.06843 97.5357 8.80066C96.9605 7.56099 96.0977 6.6486 94.9473 6.06348C93.8762 5.53786 92.7357 5.27505 91.5258 5.27505H91.2134C88.5357 5.39406 86.4431 6.46513 84.9357 8.48826C83.577 10.3031 82.8977 12.3114 82.8977 14.513C82.8977 14.761 82.9076 15.0089 82.9275 15.2568C83.0663 17.5378 83.8696 19.6155 85.3374 21.4899C86.8051 23.3643 88.7985 24.361 91.3175 24.48C91.5555 24.4899 91.7836 24.4948 92.0018 24.4948C93.2712 24.4948 94.3175 24.3015 95.1406 23.9147C96.0927 23.4585 96.8911 22.5411 97.5357 21.1626C97.6646 20.8849 97.8233 20.7461 98.0117 20.7461C98.0514 20.7461 98.0911 20.751 98.1307 20.761C98.2894 20.8205 98.3687 20.9345 98.3687 21.1031C98.3687 21.1825 98.3489 21.2717 98.3092 21.3709L97.015 24.9857C96.063 25.3824 95.096 25.6502 94.1142 25.7891C93.1324 25.9279 92.2002 25.9973 91.3175 25.9973Z" fill="#F5F5F5"/>
<path d="M106.104 24.0486H112.456C113.379 24.0486 114.157 23.6965 114.792 22.9924C115.436 22.2783 115.922 21.7229 116.25 21.3263C116.428 21.1081 116.567 20.999 116.666 20.999C116.874 20.999 116.979 21.1031 116.979 21.3114C116.979 21.4403 116.969 21.5444 116.949 21.6238L115.863 25.4469H102.192C102.013 25.4469 101.924 25.3428 101.924 25.1345C101.924 24.8866 102.172 24.6783 102.668 24.5097C103.164 24.3312 103.412 23.9196 103.412 23.275V6.74777C103.412 6.10315 103.164 5.69654 102.668 5.52794C102.172 5.34943 101.924 5.13125 101.924 4.8734C101.924 4.66513 102.028 4.561 102.237 4.561H116.041V8.38413C116.041 8.5924 115.937 8.69653 115.729 8.69653C115.63 8.69653 115.446 8.49818 115.179 8.10149C114.683 7.41719 114.251 6.88662 113.884 6.50976C113.527 6.1329 113.051 5.94447 112.456 5.94447H106.104V14.0221H109.511C110.146 14.0221 110.562 13.7692 110.76 13.2635C110.959 12.7478 111.187 12.4899 111.445 12.4899C111.643 12.4899 111.742 12.594 111.742 12.8023V16.5808C111.742 16.7891 111.643 16.8932 111.445 16.8932C111.187 16.8932 110.944 16.6403 110.716 16.1345C110.488 15.6287 110.056 15.3759 109.422 15.3759H106.104V24.0486Z" fill="#F5F5F5"/>
<path d="M130.709 4.21885C131.205 5.3891 131.815 6.82215 132.539 8.51802C133.273 10.2139 134.027 11.9593 134.8 13.7544C135.584 15.5494 136.337 17.2949 137.061 18.9907C137.795 20.6866 138.415 22.1147 138.921 23.275C139.069 23.6419 139.362 23.9742 139.798 24.2717C140.026 24.4205 140.25 24.5444 140.468 24.6436C140.696 24.7428 140.879 24.837 141.018 24.9262C141.117 24.9957 141.182 25.0651 141.212 25.1345C141.231 25.1742 141.241 25.2138 141.241 25.2535C141.241 25.2833 141.231 25.318 141.212 25.3576C141.182 25.4172 141.122 25.4469 141.033 25.4469H136.005C135.916 25.4469 135.826 25.4172 135.737 25.3576C135.638 25.2882 135.579 25.2138 135.559 25.1345C135.539 25.1048 135.529 25.075 135.529 25.0453C135.529 24.956 135.588 24.8618 135.708 24.7626C135.797 24.6734 135.906 24.5791 136.035 24.48C136.164 24.3808 136.258 24.2469 136.317 24.0783C136.347 23.999 136.362 23.9097 136.362 23.8105C136.362 23.6419 136.322 23.4585 136.243 23.2601L134.041 18.1725H125.369C125.012 19.0254 124.655 19.8783 124.298 20.7312C123.95 21.5742 123.598 22.4172 123.241 23.2601C123.152 23.4585 123.103 23.637 123.093 23.7957C123.083 23.8651 123.078 23.9345 123.078 24.0039C123.078 24.1031 123.093 24.1973 123.122 24.2866C123.152 24.4155 123.202 24.5246 123.271 24.6138C123.341 24.6932 123.39 24.7775 123.42 24.8667C123.43 24.9461 123.435 25.0006 123.435 25.0304C123.435 25.0601 123.425 25.0948 123.405 25.1345C123.336 25.3428 123.227 25.4469 123.078 25.4469H119.24C119.141 25.4469 119.071 25.4172 119.031 25.3576C119.031 25.3477 119.022 25.3229 119.002 25.2833C119.002 25.2634 119.012 25.2138 119.031 25.1345C119.091 25.0056 119.26 24.8767 119.537 24.7477C119.686 24.6783 119.845 24.6039 120.013 24.5246C120.192 24.4353 120.37 24.3312 120.549 24.2122C120.916 23.9543 121.184 23.6419 121.352 23.275L129.787 4.21885H130.709ZM133.521 16.9676L129.638 7.9081C129.003 9.42545 128.369 10.9378 127.734 12.4453C127.109 13.9527 126.484 15.4601 125.86 16.9676H133.521Z" fill="#F5F5F5"/>
<path d="M165.973 22.4271V6.74777C165.973 6.11306 165.725 5.70645 165.229 5.52794C164.743 5.34943 164.5 5.13125 164.5 4.8734C164.5 4.66513 164.599 4.561 164.797 4.561H168.591C168.799 4.561 168.903 4.66513 168.903 4.8734C168.903 5.13125 168.655 5.34943 168.159 5.52794C167.664 5.70645 167.416 6.11306 167.416 6.74777L167.401 26.0866L164.768 25.4469L150.517 7.75934V23.275C150.517 23.9196 150.764 24.3312 151.26 24.5097C151.756 24.6783 152.004 24.8866 152.004 25.1345C152.004 25.3428 151.9 25.4469 151.692 25.4469H147.913C147.705 25.4469 147.601 25.3428 147.601 25.1345C147.601 24.8866 147.849 24.6783 148.345 24.5097C148.84 24.3312 149.088 23.9196 149.088 23.275V6.74777C149.088 6.11306 148.84 5.70645 148.345 5.52794C147.849 5.34943 147.601 5.13125 147.601 4.8734C147.601 4.66513 147.705 4.561 147.913 4.561H151.736L165.973 22.4271Z" fill="#F5F5F5"/>
<path d="M65.8273 56.0519C62.7827 56.0519 60.0851 55.08 57.7347 53.1362C55.3843 51.1924 54.2091 48.5048 54.2091 45.0734C54.2091 41.7313 55.3496 39.0536 57.6306 37.0404C59.9215 35.0172 62.6537 34.0057 65.8273 34.0057C66.9678 34.0057 68.1777 34.1346 69.457 34.3924C70.7463 34.6404 71.9711 35.1362 73.1314 35.88L72.7744 39.004C72.7347 39.1825 72.6355 39.2718 72.4768 39.2718H72.4322C72.3132 39.2618 72.1843 39.123 72.0454 38.8552C71.4008 37.4767 70.5975 36.5594 69.6355 36.1032C68.6835 35.647 67.4141 35.4189 65.8273 35.4189C63.6157 35.4189 61.6471 36.1875 59.9215 37.7247C58.1959 39.2618 57.3331 41.7114 57.3331 45.0734C57.3331 47.2354 58.1364 49.323 59.743 51.3362C61.3595 53.3494 63.3876 54.4155 65.8273 54.5345C66.0653 54.5444 66.2934 54.5494 66.5116 54.5494C67.6422 54.5494 68.5942 54.4006 69.3678 54.1031C70.2901 53.7461 71.0636 53.0221 71.6884 51.9312V49.1345C71.6686 48.8271 71.5099 48.5891 71.2124 48.4205C70.9446 48.2817 70.5529 48.1081 70.0372 47.8998C69.5215 47.6817 69.2636 47.4684 69.2636 47.2602C69.2636 47.0519 69.3678 46.9478 69.576 46.9478H75.5413C75.7496 46.9478 75.8537 47.0519 75.8537 47.2602C75.8537 47.518 75.6058 47.7362 75.1099 47.9147C74.614 48.0932 74.3661 48.4998 74.3661 49.1345V54.9213C72.8388 54.9907 71.3661 55.204 69.9479 55.561C69.2339 55.7494 68.5298 55.8783 67.8355 55.9478C67.1413 56.0172 66.4719 56.0519 65.8273 56.0519Z" fill="#F5F5F5"/>
<path d="M95.2669 54.4304C95.5446 54.6585 95.9065 54.7924 96.3528 54.8321C96.6305 54.8618 96.7694 54.9659 96.7694 55.1444V55.1891C96.7396 55.3973 96.6355 55.5015 96.457 55.5015H92.4851C92.3958 55.5015 92.0586 55.1147 91.4735 54.3411C90.8884 53.5676 90.209 52.6453 89.4355 51.5742C88.6619 50.5031 87.8685 49.4073 87.0553 48.2866C86.2421 47.166 85.5628 46.2635 85.0173 45.5792H82.6372V53.3296C82.6372 53.9742 82.8851 54.3858 83.381 54.5643C83.8768 54.7329 84.1248 54.9411 84.1248 55.1891C84.1248 55.3973 84.0256 55.5015 83.8272 55.5015H78.7843C78.576 55.5015 78.4719 55.3973 78.4719 55.1891C78.4719 54.9411 78.7198 54.7329 79.2157 54.5643C79.7115 54.3858 79.9595 53.9742 79.9595 53.3296V36.8023C79.9595 36.1676 79.7115 35.761 79.2157 35.5825C78.7198 35.404 78.4719 35.1858 78.4719 34.928C78.4719 34.7197 78.576 34.6156 78.7843 34.6156H87.5611C88.5826 34.6156 89.6487 34.799 90.7595 35.166C91.8702 35.523 92.728 36.2222 93.333 37.2635C93.809 38.1065 94.047 39.118 94.047 40.2982C94.0272 41.4189 93.7049 42.4255 93.0801 43.318C92.5842 44.0222 91.895 44.5627 91.0123 44.9395C90.1297 45.3065 89.2917 45.5147 88.4983 45.5643L95.2669 54.4304ZM82.6372 35.8503V44.5379H86.0884C86.7727 44.5379 87.4669 44.4387 88.171 44.2403C88.8752 44.042 89.4801 43.6899 89.9859 43.1841C90.7793 42.4205 91.176 41.4089 91.176 40.1494C91.176 38.9395 90.7644 37.928 89.9413 37.1147C89.0586 36.2718 87.8735 35.8503 86.3859 35.8503H82.6372Z" fill="#F5F5F5"/>
<path d="M109.295 34.2734C109.791 35.4437 110.401 36.8767 111.125 38.5726C111.859 40.2684 112.612 42.0139 113.386 43.8089C114.169 45.604 114.923 47.3494 115.647 49.0453C116.381 50.7412 117.001 52.1692 117.506 53.3296C117.655 53.6965 117.948 54.0287 118.384 54.3263C118.612 54.475 118.835 54.599 119.054 54.6982C119.282 54.7973 119.465 54.8916 119.604 54.9808C119.703 55.0502 119.768 55.1197 119.797 55.1891C119.817 55.2287 119.827 55.2684 119.827 55.3081C119.827 55.3378 119.817 55.3725 119.797 55.4122C119.768 55.4717 119.708 55.5015 119.619 55.5015H114.591C114.502 55.5015 114.412 55.4717 114.323 55.4122C114.224 55.3428 114.164 55.2684 114.145 55.1891C114.125 55.1593 114.115 55.1296 114.115 55.0998C114.115 55.0106 114.174 54.9163 114.293 54.8172C114.383 54.7279 114.492 54.6337 114.621 54.5345C114.749 54.4354 114.844 54.3015 114.903 54.1329C114.933 54.0535 114.948 53.9643 114.948 53.8651C114.948 53.6965 114.908 53.513 114.829 53.3147L112.627 48.2271H103.954C103.597 49.08 103.24 49.9329 102.883 50.7858C102.536 51.6288 102.184 52.4717 101.827 53.3147C101.738 53.513 101.688 53.6916 101.678 53.8502C101.669 53.9197 101.664 53.9891 101.664 54.0585C101.664 54.1577 101.678 54.2519 101.708 54.3411C101.738 54.4701 101.788 54.5792 101.857 54.6684C101.926 54.7478 101.976 54.8321 102.006 54.9213C102.016 55.0006 102.021 55.0552 102.021 55.0849C102.021 55.1147 102.011 55.1494 101.991 55.1891C101.921 55.3973 101.812 55.5015 101.664 55.5015H97.8256C97.7264 55.5015 97.657 55.4717 97.6173 55.4122C97.6173 55.4023 97.6074 55.3775 97.5875 55.3378C97.5875 55.318 97.5975 55.2684 97.6173 55.1891C97.6768 55.0602 97.8454 54.9312 98.1231 54.8023C98.2718 54.7329 98.4305 54.6585 98.5991 54.5792C98.7776 54.4899 98.9561 54.3858 99.1346 54.2668C99.5016 54.0089 99.7693 53.6965 99.9379 53.3296L108.373 34.2734H109.295ZM112.107 47.0222L108.224 37.9627C107.589 39.48 106.954 40.9924 106.32 42.4998C105.695 44.0073 105.07 45.5147 104.445 47.0222H112.107Z" fill="#F5F5F5"/>
<path d="M133.156 56.0519C130.111 56.0519 127.414 55.08 125.064 53.1362C122.713 51.1924 121.538 48.5048 121.538 45.0734C121.538 41.7313 122.678 39.0536 124.959 37.0404C127.25 35.0172 129.982 34.0057 133.156 34.0057C134.297 34.0057 135.506 34.1346 136.786 34.3924C138.075 34.6404 139.3 35.1362 140.46 35.88L140.103 39.004C140.063 39.1825 139.964 39.2718 139.806 39.2718H139.761C139.642 39.2618 139.513 39.123 139.374 38.8552C138.799 37.6156 137.936 36.7032 136.786 36.118C135.715 35.5924 134.574 35.3296 133.364 35.3296H133.052C130.374 35.4486 128.282 36.5197 126.774 38.5428C125.416 40.3577 124.736 42.366 124.736 44.5676C124.736 44.8155 124.746 45.0635 124.766 45.3114C124.905 47.5924 125.708 49.6701 127.176 51.5445C128.644 53.4188 130.637 54.4155 133.156 54.5345C133.394 54.5444 133.622 54.5494 133.84 54.5494C135.11 54.5494 136.156 54.356 136.979 53.9692C137.931 53.513 138.73 52.5957 139.374 51.2172C139.503 50.9395 139.662 50.8007 139.85 50.8007C139.89 50.8007 139.93 50.8056 139.969 50.8155C140.128 50.875 140.207 50.9891 140.207 51.1577C140.207 51.237 140.187 51.3263 140.148 51.4254L138.854 55.0403C137.901 55.437 136.935 55.7048 135.953 55.8436C134.971 55.9825 134.039 56.0519 133.156 56.0519Z" fill="#F5F5F5"/>
<path d="M147.943 54.1031H154.295C155.217 54.1031 155.996 53.7511 156.63 53.0469C157.275 52.3329 157.761 51.7775 158.088 51.3808C158.267 51.1626 158.406 51.0535 158.505 51.0535C158.713 51.0535 158.817 51.1577 158.817 51.3659C158.817 51.4949 158.807 51.599 158.787 51.6783L157.701 55.5015H144.03C143.852 55.5015 143.763 55.3973 143.763 55.1891C143.763 54.9411 144.011 54.7329 144.506 54.5643C145.002 54.3858 145.25 53.9742 145.25 53.3296V36.8023C145.25 36.1577 145.002 35.7511 144.506 35.5825C144.011 35.404 143.763 35.1858 143.763 34.928C143.763 34.7197 143.867 34.6156 144.075 34.6156H157.88V38.4387C157.88 38.647 157.776 38.7511 157.568 38.7511C157.468 38.7511 157.285 38.5528 157.017 38.1561C156.521 37.4718 156.09 36.9412 155.723 36.5643C155.366 36.1875 154.89 35.999 154.295 35.999H147.943V44.0767H151.349C151.984 44.0767 152.401 43.8238 152.599 43.318C152.797 42.8023 153.025 42.5445 153.283 42.5445C153.482 42.5445 153.581 42.6486 153.581 42.8569V46.6354C153.581 46.8436 153.482 46.9478 153.283 46.9478C153.025 46.9478 152.782 46.6949 152.554 46.1891C152.326 45.6833 151.895 45.4304 151.26 45.4304H147.943V54.1031Z" fill="#F5F5F5"/>
<path fill-rule="evenodd" clip-rule="evenodd" d="M2.4212 49.2795C2.39598 49.2069 2.41014 49.1267 2.45958 49.0668C2.50801 49.007 2.58369 48.9757 2.66139 48.9841C3.46659 49.0746 4.08208 49.0163 5.17384 48.9588C6.10012 48.91 7.15048 48.6574 8.29471 48.4759C12.6446 47.7866 18.168 46.9973 21.7631 46.9973C25.4632 46.9973 31.2601 47.81 35.7724 48.5065C36.9177 48.6832 37.9811 48.8526 38.9054 48.9993C39.9386 49.1631 40.7408 49.0912 41.3806 48.9976C41.4603 48.9859 41.54 49.0161 41.5904 49.077C41.6409 49.138 41.656 49.2208 41.6288 49.2951C41.4956 49.6723 41.2887 50.2445 41.1868 50.4736C41.1242 50.6138 40.981 50.7416 40.8881 50.8134C40.8407 50.8507 40.7802 50.8675 40.7196 50.86C37.0074 50.4005 27.1432 49.4303 21.7631 49.4303C16.4809 49.4303 6.98501 50.3905 3.35657 50.856C3.29098 50.8645 3.22539 50.8449 3.17595 50.8023C3.09119 50.727 2.95801 50.6012 2.88132 50.4736C2.74914 50.2536 2.54531 49.6611 2.4212 49.2795Z" fill="#F5F5F5"/>
<path fill-rule="evenodd" clip-rule="evenodd" d="M7.57587 54.3792C7.50856 54.3116 7.4923 54.2099 7.53372 54.1247C7.57514 54.0396 7.66683 53.9893 7.7615 53.9989C8.17941 54.0097 8.41389 54.0222 9.04482 53.9777C9.58699 53.9393 10.212 53.7741 10.8947 53.6418C14.2705 52.987 19.0428 52.1601 22.0347 52.1601C25.0267 52.1601 29.7997 52.9871 33.1755 53.6419C33.8582 53.7742 34.4677 53.9393 35.0091 53.9776C35.5883 54.0184 35.9144 54.0665 36.2769 54.0568C36.3679 54.057 36.45 54.1109 36.4847 54.1935C36.5202 54.2761 36.5017 54.3714 36.4381 54.4354C36.0594 54.835 35.6622 55.2626 35.2495 55.5907C35.1977 55.631 35.1311 55.6474 35.0668 55.6356C32.0993 55.0966 25.6946 54.1999 22.0347 54.1999C18.3756 54.1999 11.9702 55.0966 9.0034 55.6357C8.93905 55.6476 8.87174 55.6312 8.81996 55.5908C8.388 55.2465 7.97232 54.7934 7.57587 54.3792Z" fill="#F5F5F5"/>
<path fill-rule="evenodd" clip-rule="evenodd" d="M15.1724 57.4134C15.0772 57.796 15.1442 58.2005 15.358 58.5333C15.5722 58.8661 15.9148 59.0984 16.3065 59.1766C17.9263 59.5159 20.4883 60 22.0347 60C23.5892 60 26.1484 59.5159 27.7654 59.1733C28.1554 59.0953 28.4966 58.8637 28.7097 58.532C28.9229 58.2003 28.9895 57.7973 28.8942 57.4162C28.8974 57.4154 28.8974 57.4153 28.8974 57.4153C28.8601 57.2665 28.708 57.1754 28.5569 57.2112C27.5449 57.4487 23.9667 58.255 22.0347 58.255C20.1108 58.255 16.5208 57.4471 15.5101 57.2104C15.3601 57.175 15.2094 57.2655 15.1728 57.4132L15.1724 57.4134Z" fill="#F5F5F5"/>
<path fill-rule="evenodd" clip-rule="evenodd" d="M4.71982 13.3449L4.68194 13.2869L4.66899 13.3135L4.7058 13.3734L4.66899 13.3145C4.31605 14.0212 3.982 14.7506 3.66595 15.5016L3.70684 15.5606L3.66595 15.5026L3.65203 15.536L3.69185 15.5959L3.65105 15.537C1.76272 20.0292 0.517381 25.2665 0.131539 30.9118C0.0846794 31.594 0.0498543 32.2811 0.0289171 32.9741L0.0867513 33.033L0.0289171 32.9751L0.0278461 33.0055L0.0856803 33.0655L0.0278461 33.0065C0.00890297 33.5609 0 34.1192 0 34.6805C0 37.6059 0.230324 40.4447 0.664023 43.1587L0.723804 43.2089L0.664023 43.1597L0.670935 43.1981C0.669938 43.1961 0.669985 43.1931 0.668988 43.1912L0.797606 43.9638L0.978995 44.9419L1.04384 45.2574C1.04982 45.2849 1.07578 45.3056 1.10469 45.3046L14.317 44.9507C14.3509 44.9497 14.3768 44.9222 14.3758 44.8898L14.3699 44.6843C14.3709 44.4002 14.3868 44.1201 14.4187 43.8449C14.4187 43.8458 14.4187 43.8468 14.4187 43.8478L14.4207 43.8311C14.5294 42.8678 14.8235 41.9585 15.2672 41.1397L15.2662 41.1407L15.2771 41.121L15.2781 41.12C15.4436 40.8153 15.6301 40.5224 15.8365 40.2452L15.8355 40.2462L15.8464 40.2314C16.3987 39.4863 17.0866 38.8444 17.8743 38.3421L17.8733 38.3431L17.8933 38.3303C18.1834 38.1446 18.4884 37.9794 18.8045 37.8339H18.8035L18.8205 37.8271C19.64 37.4516 20.5383 37.2166 21.4844 37.1508C21.4834 37.1508 21.4814 37.1508 21.4805 37.1508L21.5064 37.1488H21.5054H21.5074C21.6809 37.135 21.8574 37.1291 22.0348 37.1291C22.2063 37.1291 22.3768 37.134 22.5463 37.1478L22.5672 37.1488C22.5652 37.1488 22.5642 37.1488 22.5632 37.1488C23.5094 37.2107 24.4097 37.4437 25.2302 37.8182L25.2512 37.8271H25.2502C25.5672 37.9715 25.8713 38.1367 26.1635 38.3215L26.1784 38.3313L26.1764 38.3303C26.966 38.8297 27.6559 39.4706 28.2103 40.2137L28.2243 40.2324L28.2233 40.2314C28.4307 40.5086 28.617 40.8006 28.7835 41.1053L28.7926 41.121C29.2392 41.9418 29.5364 42.853 29.648 43.8193L29.65 43.835C29.649 43.834 29.649 43.8331 29.649 43.8311C29.6829 44.1112 29.6989 44.3963 29.6989 44.6843L29.6939 44.8898C29.6929 44.9222 29.7198 44.9497 29.7527 44.9507L42.965 45.3046C42.9939 45.3056 43.0199 45.2849 43.0258 45.2574L43.0906 44.9409L43.273 43.9628L43.4007 43.1902C43.8374 40.4673 44.0697 37.6167 44.0697 34.6805C44.0697 34.1291 44.0618 33.5806 44.0428 33.035L44.0417 33.0085C44.0228 32.3145 43.9879 31.6244 43.9411 30.9413L43.938 30.9098C43.5542 25.2763 42.312 20.0508 40.4296 15.5635L40.4186 15.537C40.1026 14.786 39.7686 14.0556 39.4176 13.3479L39.4017 13.3145C38.1853 10.858 36.7626 8.67085 35.1794 6.81892C31.4994 2.51346 26.9441 -2.28882e-05 22.0348 -2.28882e-05C17.1256 -2.28882e-05 12.5713 2.51346 8.89031 6.81892C7.31304 8.66397 5.89528 10.8403 4.68292 13.2859L4.71982 13.3449ZM1.55432 33.8588C1.55432 33.8588 9.04678 37.8605 12.4695 39.6878C13.3658 40.1666 13.7966 41.2006 13.5015 42.162C13.4875 42.1571 13.4874 42.1571 13.4874 42.1571C13.2043 43.0703 12.3279 43.6768 11.3608 43.6296C8.25814 43.491 2.23528 43.1961 2.23528 43.1961C1.78464 40.4782 1.54731 37.6236 1.54731 34.6815L1.55432 33.8588ZM41.8354 43.1961C41.8354 43.1961 35.8923 43.4871 32.7726 43.6404C31.7866 43.6886 30.8952 43.0634 30.6181 42.1286C30.6211 42.1276 30.6211 42.1276 30.6211 42.1276C30.3379 41.1702 30.7707 40.1489 31.659 39.6731C35.1026 37.828 42.5154 33.8627 42.5154 33.8627L42.5233 34.6815C42.5233 37.6236 42.285 40.4782 41.8354 43.1961ZM0.684956 43.2226C0.690938 43.2275 0.697839 43.2325 0.704818 43.2354C0.711797 43.2384 0.719797 43.2403 0.72877 43.2403C0.72877 43.2403 0.702902 43.2393 0.684956 43.2226ZM0.737727 43.2384V43.2394C0.734736 43.2403 0.731761 43.2403 0.72877 43.2403C0.72877 43.2403 0.732742 43.2393 0.737727 43.2384ZM0.670935 43.1981C0.670935 43.199 0.671909 43.199 0.671909 43.2V43.201L0.670935 43.1981ZM15.7627 40.2442C15.7676 40.2481 15.7736 40.2511 15.7796 40.2531L15.7876 40.2698C15.7746 40.2698 15.7627 40.2648 15.7527 40.258L15.7627 40.2442ZM1.63007 31.7011C1.92119 26.4107 2.98697 21.4722 4.64699 17.1825C5.43662 18.4495 13.3559 31.1634 16.2014 35.7294C16.7268 36.5747 16.5862 37.6658 15.8614 38.3539C15.8504 38.3421 15.8504 38.3421 15.8504 38.3421C15.1644 38.9899 14.1236 39.1039 13.3101 38.6203C9.84445 36.5806 1.63007 31.7011 1.63007 31.7011ZM39.4227 17.1825C39.4227 17.1825 30.9072 30.8518 27.9151 35.6547C27.3827 36.5099 27.5284 37.6147 28.2652 38.3077C28.2672 38.3058 28.2671 38.3058 28.2671 38.3058C28.964 38.9604 30.0189 39.0744 30.8444 38.5849C34.3419 36.5099 42.4396 31.6991 42.4396 31.6991C42.1475 26.4087 41.0827 21.4722 39.4227 17.1825ZM20.8893 1.58159C16.8534 1.9394 13.1425 4.21107 10.0727 7.80091C8.38476 9.77572 6.89233 12.1457 5.64906 14.8263C5.64906 14.8263 14.5413 30.2355 17.3997 35.1887C17.8783 36.0184 18.8624 36.4273 19.7986 36.1865C19.7936 36.1707 19.7935 36.1707 19.7935 36.1707C20.7327 35.925 21.3818 35.0816 21.3668 34.1232C21.2771 27.0781 20.8893 1.58159 20.8893 1.58159ZM23.1804 1.58159C23.1804 1.58159 22.7926 27.1008 22.6859 34.132C22.671 35.0924 23.3249 35.9368 24.2671 36.1766C24.2721 36.1589 24.2721 36.1589 24.2721 36.1589C25.2093 36.3939 26.1903 35.982 26.6679 35.1533C29.5592 30.1824 38.4206 14.8263 38.4206 14.8263L38.4196 14.8223C37.1764 12.1437 35.6838 9.77474 33.9969 7.80091C30.9281 4.21107 27.2163 1.9394 23.1804 1.58159ZM23.1535 1.51966C23.1425 1.54817 23.1216 1.57569 23.1216 1.57569L23.1774 1.52163L23.1694 1.52065L23.1535 1.51966Z" fill="#F5F5F5"/>
</svg>
