<svg width="350" height="25" viewBox="0 0 350 25" fill="none" xmlns="http://www.w3.org/2000/svg">
<path d="M173.517 23.585L162.416 12.5L173.517 1.41406L184.618 12.5L173.517 23.585Z" stroke="black" stroke-width="2"/>
<path d="M206.517 23.585L195.416 12.5L206.517 1.41406L217.618 12.5L206.517 23.585Z" stroke="black" stroke-width="2"/>
<path d="M140.517 23.585L129.416 12.5L140.517 1.41406L151.618 12.5L140.517 23.585Z" stroke="black" stroke-width="2"/>
<path d="M179.55 23.585L168.449 12.5L179.55 1.41406L190.651 12.5L179.55 23.585Z" stroke="black" stroke-width="2"/>
<path d="M212.55 23.585L201.449 12.5L212.55 1.41406L223.651 12.5L212.55 23.585Z" stroke="black" stroke-width="2"/>
<path d="M146.55 23.585L135.449 12.5L146.55 1.41406L157.651 12.5L146.55 23.585Z" stroke="black" stroke-width="2"/>
<path d="M251 12.4834H348.495" stroke="black" stroke-width="2" stroke-linecap="round"/>
<path d="M1 12.4834H98.4954" stroke="black" stroke-width="2" stroke-linecap="round"/>
</svg>
