<svg width="33" height="33" viewBox="0 0 33 33" fill="none" xmlns="http://www.w3.org/2000/svg">
<path d="M16.0237 2.96026C20.305 2.96026 20.812 2.97952 22.4957 3.05658C24.0605 3.12722 24.9054 3.39691 25.4688 3.62166C26.2136 3.91705 26.7519 4.27665 27.309 4.84815C27.8723 5.42607 28.2165 5.97189 28.5045 6.73604C28.7235 7.31396 28.9864 8.18727 29.0553 9.7862C29.1304 11.52 29.1492 12.0401 29.1492 16.4259C29.1492 20.8181 29.1304 21.3383 29.0553 23.0656C28.9864 24.671 28.7235 25.5379 28.5045 26.1158C28.2165 26.8799 27.866 27.4322 27.309 28.0037C26.7456 28.5816 26.2136 28.9348 25.4688 29.2302C24.9054 29.4549 24.0542 29.7246 22.4957 29.7952C20.8057 29.8723 20.2987 29.8916 16.0237 29.8916C11.7424 29.8916 11.2354 29.8723 9.55172 29.7952C7.98693 29.7246 7.14195 29.4549 6.57862 29.2302C5.83378 28.9348 5.29549 28.5752 4.73843 28.0037C4.1751 27.4258 3.83085 26.8799 3.54293 26.1158C3.32386 25.5379 3.06097 24.6646 2.99212 23.0656C2.91701 21.3319 2.89824 20.8117 2.89824 16.4259C2.89824 12.0337 2.91701 11.5135 2.99212 9.7862C3.06097 8.18085 3.32386 7.31396 3.54293 6.73604C3.83085 5.97189 4.18136 5.41965 4.73843 4.84815C5.30175 4.27022 5.83378 3.91705 6.57862 3.62166C7.14195 3.39691 7.99319 3.12722 9.55172 3.05658C11.2354 2.97952 11.7424 2.96026 16.0237 2.96026ZM16.0237 0C11.6736 0 11.129 0.0192642 9.42028 0.0963208C7.71779 0.173378 6.54733 0.455919 5.53334 0.860466C4.47554 1.28428 3.58048 1.84294 2.69168 2.7612C1.79662 3.67303 1.25208 4.59129 0.838972 5.67009C0.444644 6.71677 0.169241 7.91115 0.0941315 9.65777C0.0190216 11.4172 0.000244141 11.9759 0.000244141 16.4388C0.000244141 20.9016 0.0190216 21.4603 0.0941315 23.2133C0.169241 24.9599 0.444644 26.1607 0.838972 27.201C1.25208 28.2862 1.79662 29.2045 2.69168 30.1163C3.58048 31.0282 4.47554 31.5932 5.52708 32.0106C6.54733 32.4152 7.71153 32.6977 9.41402 32.7748C11.1228 32.8518 11.6673 32.8711 16.0174 32.8711C20.3675 32.8711 20.9121 32.8518 22.6208 32.7748C24.3233 32.6977 25.4938 32.4152 26.5078 32.0106C27.5593 31.5932 28.4544 31.0282 29.3432 30.1163C30.232 29.2045 30.7828 28.2862 31.1896 27.2074C31.584 26.1607 31.8594 24.9664 31.9345 23.2197C32.0096 21.4667 32.0284 20.908 32.0284 16.4452C32.0284 11.9823 32.0096 11.4237 31.9345 9.67061C31.8594 7.92399 31.584 6.72319 31.1896 5.68293C30.7953 4.59129 30.2508 3.67303 29.3557 2.7612C28.4669 1.84936 27.5718 1.28428 26.5203 0.866887C25.5001 0.46234 24.3359 0.179799 22.6334 0.102742C20.9184 0.0192642 20.3738 0 16.0237 0Z" fill="#243352"/>
<path d="M16.0237 7.99463C11.4796 7.99463 7.79291 11.7768 7.79291 16.4388C7.79291 21.1007 11.4796 24.8829 16.0237 24.8829C20.5679 24.8829 24.2545 21.1007 24.2545 16.4388C24.2545 11.7768 20.5679 7.99463 16.0237 7.99463ZM16.0237 21.9162C13.0756 21.9162 10.6846 19.4632 10.6846 16.4388C10.6846 13.4143 13.0756 10.9613 16.0237 10.9613C18.9718 10.9613 21.3628 13.4143 21.3628 16.4388C21.3628 19.4632 18.9718 21.9162 16.0237 21.9162Z" fill="#243352"/>
<path d="M26.5016 7.66082C26.5016 8.75246 25.6378 9.63219 24.58 9.63219C23.516 9.63219 22.6584 8.74604 22.6584 7.66082C22.6584 6.56918 23.5222 5.68945 24.58 5.68945C25.6378 5.68945 26.5016 6.57561 26.5016 7.66082Z" fill="#243352"/>
</svg>
