<svg width="170" height="61" viewBox="0 0 170 61" fill="none" xmlns="http://www.w3.org/2000/svg">
<path d="M65.3531 5.26991C62.3085 5.27983 60.1812 6.24181 58.9713 8.15586C57.7614 10.06 57.1564 12.3509 57.1564 15.0286C57.1564 17.7162 57.9151 20.012 59.4324 21.9162C60.9498 23.8104 62.9233 24.7674 65.3531 24.7872H65.4275C67.7977 24.7872 69.7465 23.7757 71.2737 21.7525C72.7812 19.7492 73.5349 17.5377 73.5349 15.1178V15.0286C73.515 12.5592 72.8704 10.3178 71.601 8.30462C70.3316 6.28148 68.2489 5.26991 65.3531 5.26991ZM65.3531 3.96082H65.5018C68.7051 3.96082 71.4076 4.94264 73.6093 6.90627C75.6622 8.74098 76.6886 11.1608 76.6886 14.1658C76.6886 14.4335 76.6787 14.7063 76.6588 14.9839C76.4506 18.3955 75.2655 21.0434 73.1035 22.9277C70.9514 24.8021 68.358 25.8236 65.3233 25.9922C65.0952 26.0021 64.8671 26.0071 64.639 26.0071C61.882 26.0071 59.4424 25.055 57.32 23.1509C55.1382 21.2071 54.0473 18.6633 54.0473 15.5195C54.0473 15.341 54.0523 15.1625 54.0622 14.9839C54.1812 11.6021 55.2721 8.92941 57.3349 6.96578C59.4076 5.00215 62.0804 4.00049 65.3531 3.96082Z" fill="#F5F5F5"/>
<path d="M91.4384 26.0219C88.3937 26.0219 85.6962 25.05 83.3458 23.1062C80.9954 21.1624 79.8202 18.4748 79.8202 15.0434C79.8202 11.7013 80.9607 9.02362 83.2417 7.0104C85.5326 4.98727 88.2648 3.9757 91.4384 3.9757C92.5789 3.9757 93.7888 4.10463 95.0681 4.36248C96.3574 4.61041 97.5822 5.10628 98.7425 5.85008L98.3855 8.97404C98.3458 9.15255 98.2466 9.24181 98.0879 9.24181H98.0433C97.9243 9.23189 97.7954 9.09304 97.6565 8.82528C97.0813 7.58561 96.2185 6.67322 95.0681 6.08809C93.997 5.56247 92.8565 5.29966 91.6466 5.29966H91.3342C88.6566 5.41867 86.564 6.48974 85.0566 8.51288C83.6979 10.3278 83.0186 12.336 83.0186 14.5377C83.0186 14.7856 83.0285 15.0335 83.0483 15.2815C83.1871 17.5624 83.9905 19.6401 85.4582 21.5145C86.926 23.3889 88.9194 24.3856 91.4384 24.5046C91.6764 24.5145 91.9045 24.5195 92.1227 24.5195C93.3921 24.5195 94.4384 24.3261 95.2615 23.9393C96.2136 23.4831 97.0119 22.5657 97.6565 21.1872C97.7855 20.9095 97.9441 20.7707 98.1326 20.7707C98.1722 20.7707 98.2119 20.7757 98.2516 20.7856C98.4103 20.8451 98.4896 20.9591 98.4896 21.1277C98.4896 21.2071 98.4698 21.2963 98.4301 21.3955L97.1359 25.0104C96.1838 25.4071 95.2169 25.6748 94.2351 25.8137C93.2532 25.9525 92.321 26.0219 91.4384 26.0219Z" fill="#F5F5F5"/>
<path d="M106.225 24.0732H112.577C113.499 24.0732 114.278 23.7211 114.913 23.017C115.557 22.3029 116.043 21.7476 116.371 21.3509C116.549 21.1327 116.688 21.0236 116.787 21.0236C116.995 21.0236 117.099 21.1277 117.099 21.336C117.099 21.4649 117.09 21.569 117.07 21.6484L115.984 25.4715H102.313C102.134 25.4715 102.045 25.3674 102.045 25.1591C102.045 24.9112 102.293 24.7029 102.789 24.5343C103.285 24.3558 103.533 23.9443 103.533 23.2996V6.77239C103.533 6.12776 103.285 5.72115 102.789 5.55256C102.293 5.37404 102.045 5.15586 102.045 4.89801C102.045 4.68975 102.149 4.58562 102.357 4.58562H116.162V8.40875C116.162 8.61701 116.058 8.72114 115.85 8.72114C115.751 8.72114 115.567 8.5228 115.299 8.1261C114.804 7.44181 114.372 6.91123 114.005 6.53437C113.648 6.15751 113.172 5.96908 112.577 5.96908H106.225V14.0468H109.632C110.266 14.0468 110.683 13.7939 110.881 13.2881C111.08 12.7724 111.308 12.5145 111.566 12.5145C111.764 12.5145 111.863 12.6187 111.863 12.8269V16.6054C111.863 16.8137 111.764 16.9178 111.566 16.9178C111.308 16.9178 111.065 16.6649 110.837 16.1591C110.609 15.6534 110.177 15.4005 109.542 15.4005H106.225V24.0732Z" fill="#F5F5F5"/>
<path d="M130.83 4.24347C131.326 5.41371 131.936 6.84677 132.66 8.54263C133.394 10.2385 134.147 11.9839 134.921 13.779C135.704 15.574 136.458 17.3195 137.182 19.0153C137.916 20.7112 138.536 22.1393 139.042 23.2996C139.19 23.6666 139.483 23.9988 139.919 24.2963C140.147 24.4451 140.37 24.569 140.589 24.6682C140.817 24.7674 141 24.8616 141.139 24.9509C141.238 25.0203 141.303 25.0897 141.332 25.1591C141.352 25.1988 141.362 25.2385 141.362 25.2781C141.362 25.3079 141.352 25.3426 141.332 25.3823C141.303 25.4418 141.243 25.4715 141.154 25.4715H136.126C136.037 25.4715 135.947 25.4418 135.858 25.3823C135.759 25.3128 135.699 25.2385 135.68 25.1591C135.66 25.1294 135.65 25.0996 135.65 25.0699C135.65 24.9806 135.709 24.8864 135.828 24.7872C135.918 24.698 136.027 24.6038 136.156 24.5046C136.285 24.4054 136.379 24.2715 136.438 24.1029C136.468 24.0236 136.483 23.9343 136.483 23.8352C136.483 23.6666 136.443 23.4831 136.364 23.2847L134.162 18.1972H125.49C125.132 19.05 124.775 19.9029 124.418 20.7558C124.071 21.5988 123.719 22.4418 123.362 23.2847C123.273 23.4831 123.223 23.6616 123.213 23.8203C123.204 23.8897 123.199 23.9591 123.199 24.0285C123.199 24.1277 123.214 24.2219 123.243 24.3112C123.273 24.4401 123.323 24.5492 123.392 24.6385C123.461 24.7178 123.511 24.8021 123.541 24.8914C123.551 24.9707 123.556 25.0252 123.556 25.055C123.556 25.0847 123.546 25.1195 123.526 25.1591C123.456 25.3674 123.347 25.4715 123.199 25.4715H119.361C119.261 25.4715 119.192 25.4418 119.152 25.3823C119.152 25.3723 119.142 25.3476 119.123 25.3079C119.123 25.288 119.133 25.2385 119.152 25.1591C119.212 25.0302 119.38 24.9013 119.658 24.7723C119.807 24.7029 119.966 24.6285 120.134 24.5492C120.313 24.46 120.491 24.3558 120.67 24.2368C121.037 23.979 121.304 23.6666 121.473 23.2996L129.908 4.24347H130.83ZM133.642 16.9922L129.759 7.93272C129.124 9.45007 128.49 10.9625 127.855 12.4699C127.23 13.9773 126.605 15.4848 125.98 16.9922H133.642Z" fill="#F5F5F5"/>
<path d="M166.094 22.4517V6.77239C166.094 6.13768 165.846 5.73107 165.35 5.55256C164.864 5.37404 164.621 5.15586 164.621 4.89801C164.621 4.68975 164.72 4.58562 164.918 4.58562H168.712C168.92 4.58562 169.024 4.68975 169.024 4.89801C169.024 5.15586 168.776 5.37404 168.28 5.55256C167.784 5.73107 167.537 6.13768 167.537 6.77239L167.522 26.1112L164.889 25.4715L150.637 7.78396V23.2996C150.637 23.9443 150.885 24.3558 151.381 24.5343C151.877 24.7029 152.125 24.9112 152.125 25.1591C152.125 25.3674 152.021 25.4715 151.813 25.4715H148.034C147.826 25.4715 147.722 25.3674 147.722 25.1591C147.722 24.9112 147.97 24.7029 148.465 24.5343C148.961 24.3558 149.209 23.9443 149.209 23.2996V6.77239C149.209 6.13768 148.961 5.73107 148.465 5.55256C147.97 5.37404 147.722 5.15586 147.722 4.89801C147.722 4.68975 147.826 4.58562 148.034 4.58562H151.857L166.094 22.4517Z" fill="#F5F5F5"/>
<path d="M65.9481 56.0765C62.9035 56.0765 60.206 55.1046 57.8556 53.1608C55.5052 51.217 54.33 48.5294 54.33 45.098C54.33 41.7559 55.4705 39.0782 57.7515 37.065C60.0424 35.0418 62.7746 34.0303 65.9481 34.0303C67.0886 34.0303 68.2985 34.1592 69.5779 34.417C70.8671 34.665 72.0919 35.1608 73.2522 35.9046L72.8952 39.0286C72.8556 39.2071 72.7564 39.2964 72.5977 39.2964H72.5531C72.4341 39.2865 72.3051 39.1476 72.1663 38.8798C71.5217 37.5013 70.7184 36.584 69.7564 36.1278C68.8043 35.6716 67.5349 35.4435 65.9481 35.4435C63.7366 35.4435 61.768 36.2121 60.0424 37.7493C58.3167 39.2865 57.4539 41.736 57.4539 45.098C57.4539 47.26 58.2572 49.3476 59.8638 51.3608C61.4804 53.374 63.5085 54.4401 65.9481 54.5591C66.1861 54.5691 66.4142 54.574 66.6324 54.574C67.763 54.574 68.7151 54.4253 69.4886 54.1277C70.4109 53.7707 71.1845 53.0468 71.8093 51.9558V49.1592C71.7894 48.8517 71.6308 48.6137 71.3332 48.4451C71.0655 48.3063 70.6737 48.1327 70.158 47.9245C69.6423 47.7063 69.3845 47.493 69.3845 47.2848C69.3845 47.0765 69.4886 46.9724 69.6969 46.9724H75.6622C75.8704 46.9724 75.9746 47.0765 75.9746 47.2848C75.9746 47.5426 75.7266 47.7608 75.2308 47.9393C74.7349 48.1178 74.487 48.5245 74.487 49.1592V54.9459C72.9597 55.0153 71.487 55.2286 70.0688 55.5856C69.3547 55.774 68.6506 55.9029 67.9564 55.9724C67.2622 56.0418 66.5928 56.0765 65.9481 56.0765Z" fill="#F5F5F5"/>
<path d="M95.3877 54.455C95.6654 54.6831 96.0274 54.817 96.4737 54.8567C96.7514 54.8864 96.8902 54.9906 96.8902 55.1691V55.2137C96.8605 55.422 96.7563 55.5261 96.5778 55.5261H92.6059C92.5167 55.5261 92.1795 55.1393 91.5943 54.3658C91.0092 53.5922 90.3299 52.6699 89.5563 51.5988C88.7828 50.5278 87.9894 49.4319 87.1762 48.3112C86.363 47.1906 85.6836 46.2881 85.1382 45.6038H82.758V53.3542C82.758 53.9988 83.0059 54.4104 83.5018 54.5889C83.9977 54.7575 84.2456 54.9658 84.2456 55.2137C84.2456 55.422 84.1464 55.5261 83.9481 55.5261H78.9051C78.6969 55.5261 78.5927 55.422 78.5927 55.2137C78.5927 54.9658 78.8407 54.7575 79.3365 54.5889C79.8324 54.4104 80.0803 53.9988 80.0803 53.3542V36.827C80.0803 36.1922 79.8324 35.7856 79.3365 35.6071C78.8407 35.4286 78.5927 35.2104 78.5927 34.9526C78.5927 34.7443 78.6969 34.6402 78.9051 34.6402H87.682C88.7034 34.6402 89.7696 34.8237 90.8803 35.1906C91.991 35.5476 92.8489 36.2468 93.4538 37.2881C93.9299 38.1311 94.1679 39.1427 94.1679 40.3228C94.1481 41.4435 93.8258 42.4501 93.201 43.3426C92.7051 44.0468 92.0158 44.5873 91.1332 44.9641C90.2505 45.3311 89.4125 45.5393 88.6192 45.5889L95.3877 54.455ZM82.758 35.8749V44.5625H86.2092C86.8935 44.5625 87.5878 44.4633 88.2919 44.265C88.996 44.0666 89.601 43.7145 90.1068 43.2088C90.9001 42.4451 91.2968 41.4336 91.2968 40.1741C91.2968 38.9641 90.8853 37.9526 90.0621 37.1394C89.1795 36.2964 87.9944 35.8749 86.5068 35.8749H82.758Z" fill="#F5F5F5"/>
<path d="M109.416 34.298C109.912 35.4683 110.522 36.9013 111.246 38.5972C111.979 40.2931 112.733 42.0385 113.507 43.8336C114.29 45.6286 115.044 47.374 115.768 49.0699C116.502 50.7658 117.122 52.1939 117.627 53.3542C117.776 53.7211 118.069 54.0534 118.505 54.3509C118.733 54.4996 118.956 54.6236 119.174 54.7228C119.403 54.822 119.586 54.9162 119.725 55.0054C119.824 55.0748 119.888 55.1443 119.918 55.2137C119.938 55.2534 119.948 55.293 119.948 55.3327C119.948 55.3624 119.938 55.3972 119.918 55.4368C119.888 55.4963 119.829 55.5261 119.74 55.5261H114.712C114.622 55.5261 114.533 55.4963 114.444 55.4368C114.345 55.3674 114.285 55.293 114.265 55.2137C114.246 55.1839 114.236 55.1542 114.236 55.1244C114.236 55.0352 114.295 54.941 114.414 54.8418C114.503 54.7525 114.612 54.6583 114.741 54.5591C114.87 54.46 114.965 54.3261 115.024 54.1575C115.054 54.0782 115.069 53.9889 115.069 53.8897C115.069 53.7211 115.029 53.5377 114.95 53.3393L112.748 48.2517H104.075C103.718 49.1046 103.361 49.9575 103.004 50.8104C102.657 51.6534 102.305 52.4963 101.948 53.3393C101.859 53.5377 101.809 53.7162 101.799 53.8749C101.789 53.9443 101.784 54.0137 101.784 54.0831C101.784 54.1823 101.799 54.2765 101.829 54.3658C101.859 54.4947 101.908 54.6038 101.978 54.693C102.047 54.7724 102.097 54.8567 102.127 54.9459C102.136 55.0253 102.141 55.0798 102.141 55.1096C102.141 55.1393 102.132 55.174 102.112 55.2137C102.042 55.422 101.933 55.5261 101.784 55.5261H97.9464C97.8472 55.5261 97.7778 55.4963 97.7381 55.4368C97.7381 55.4269 97.7282 55.4021 97.7084 55.3624C97.7084 55.3426 97.7183 55.293 97.7381 55.2137C97.7976 55.0848 97.9662 54.9558 98.2439 54.8269C98.3927 54.7575 98.5514 54.6831 98.72 54.6038C98.8985 54.5145 99.077 54.4104 99.2555 54.2914C99.6224 54.0335 99.8902 53.7211 100.059 53.3542L108.493 34.298H109.416ZM112.227 47.0468L108.345 37.9873C107.71 39.5046 107.075 41.017 106.441 42.5245C105.816 44.0319 105.191 45.5393 104.566 47.0468H112.227Z" fill="#F5F5F5"/>
<path d="M133.277 56.0765C130.232 56.0765 127.535 55.1046 125.184 53.1608C122.834 51.217 121.659 48.5294 121.659 45.098C121.659 41.7559 122.799 39.0782 125.08 37.065C127.371 35.0418 130.103 34.0303 133.277 34.0303C134.417 34.0303 135.627 34.1592 136.907 34.417C138.196 34.665 139.421 35.1608 140.581 35.9046L140.224 39.0286C140.184 39.2071 140.085 39.2964 139.926 39.2964H139.882C139.763 39.2865 139.634 39.1476 139.495 38.8798C138.92 37.6402 138.057 36.7278 136.907 36.1427C135.836 35.617 134.695 35.3542 133.485 35.3542H133.173C130.495 35.4732 128.403 36.5443 126.895 38.5674C125.536 40.3823 124.857 42.3906 124.857 44.5922C124.857 44.8402 124.867 45.0881 124.887 45.336C125.026 47.617 125.829 49.6947 127.297 51.5691C128.765 53.4434 130.758 54.4401 133.277 54.5591C133.515 54.5691 133.743 54.574 133.961 54.574C135.231 54.574 136.277 54.3806 137.1 53.9939C138.052 53.5377 138.85 52.6203 139.495 51.2418C139.624 50.9641 139.783 50.8253 139.971 50.8253C140.011 50.8253 140.05 50.8302 140.09 50.8401C140.249 50.8997 140.328 51.0137 140.328 51.1823C140.328 51.2616 140.308 51.3509 140.269 51.4501L138.974 55.0649C138.022 55.4616 137.055 55.7294 136.074 55.8682C135.092 56.0071 134.16 56.0765 133.277 56.0765Z" fill="#F5F5F5"/>
<path d="M148.064 54.1277H154.416C155.338 54.1277 156.117 53.7757 156.751 53.0715C157.396 52.3575 157.882 51.8021 158.209 51.4054C158.388 51.1873 158.526 51.0782 158.626 51.0782C158.834 51.0782 158.938 51.1823 158.938 51.3906C158.938 51.5195 158.928 51.6236 158.908 51.703L157.822 55.5261H144.151C143.973 55.5261 143.883 55.422 143.883 55.2137C143.883 54.9658 144.131 54.7575 144.627 54.5889C145.123 54.4104 145.371 53.9988 145.371 53.3542V36.827C145.371 36.1823 145.123 35.7757 144.627 35.6071C144.131 35.4286 143.883 35.2104 143.883 34.9526C143.883 34.7443 143.988 34.6402 144.196 34.6402H158.001V38.4633C158.001 38.6716 157.897 38.7757 157.688 38.7757C157.589 38.7757 157.406 38.5774 157.138 38.1807C156.642 37.4964 156.211 36.9658 155.844 36.5889C155.487 36.2121 155.011 36.0237 154.416 36.0237H148.064V44.1013H151.47C152.105 44.1013 152.521 43.8484 152.72 43.3426C152.918 42.8269 153.146 42.5691 153.404 42.5691C153.602 42.5691 153.702 42.6732 153.702 42.8815V46.66C153.702 46.8683 153.602 46.9724 153.404 46.9724C153.146 46.9724 152.903 46.7195 152.675 46.2137C152.447 45.7079 152.016 45.455 151.381 45.455H148.064V54.1277Z" fill="#F5F5F5"/>
<path fill-rule="evenodd" clip-rule="evenodd" d="M2.54205 49.3042C2.51683 49.2316 2.53099 49.1513 2.58043 49.0915C2.62886 49.0316 2.70454 49.0003 2.78224 49.0087C3.58743 49.0992 4.20293 49.041 5.29469 48.9834C6.22097 48.9347 7.27133 48.682 8.41556 48.5006C12.7655 47.8112 18.2888 47.0219 21.884 47.0219C25.5841 47.0219 31.3809 47.8346 35.8933 48.5311C37.0385 48.7079 38.102 48.8772 39.0263 49.0239C40.0595 49.1877 40.8617 49.1158 41.5014 49.0222C41.5811 49.0106 41.6608 49.0407 41.7113 49.1016C41.7617 49.1626 41.7769 49.2455 41.7496 49.3197C41.6164 49.6969 41.4096 50.2691 41.3076 50.4982C41.2451 50.6384 41.1018 50.7662 41.009 50.838C40.9616 50.8754 40.901 50.8921 40.8405 50.8846C37.1283 50.4251 27.2641 49.4549 21.884 49.4549C16.6018 49.4549 7.10586 50.4151 3.47742 50.8807C3.41183 50.8892 3.34624 50.8696 3.2968 50.8269C3.21204 50.7516 3.07886 50.6259 3.00217 50.4982C2.86999 50.2782 2.66616 49.6857 2.54205 49.3042Z" fill="#F5F5F5"/>
<path fill-rule="evenodd" clip-rule="evenodd" d="M7.69672 54.4039C7.62941 54.3363 7.61315 54.2345 7.65457 54.1493C7.69599 54.0642 7.78768 54.0139 7.88235 54.0235C8.30026 54.0343 8.53474 54.0468 9.16567 54.0023C9.70784 53.964 10.3329 53.7988 11.0156 53.6664C14.3914 53.0116 19.1637 52.1847 22.1556 52.1847C25.1475 52.1847 29.9205 53.0117 33.2964 53.6665C33.9791 53.7989 34.5885 53.964 35.13 54.0022C35.7091 54.043 36.0353 54.0911 36.3977 54.0815C36.4887 54.0817 36.5708 54.1355 36.6056 54.2181C36.6411 54.3007 36.6226 54.396 36.559 54.46C36.1803 54.8596 35.7831 55.2872 35.3704 55.6153C35.3186 55.6556 35.252 55.6721 35.1876 55.6602C32.2201 55.1212 25.8154 54.2246 22.1556 54.2246C18.4965 54.2246 12.091 55.1212 9.12425 55.6603C9.0599 55.6723 8.99259 55.6558 8.94081 55.6154C8.50885 55.2711 8.09317 54.8181 7.69672 54.4039Z" fill="#F5F5F5"/>
<path fill-rule="evenodd" clip-rule="evenodd" d="M15.2933 57.438C15.198 57.8206 15.265 58.2252 15.4789 58.5579C15.6931 58.8907 16.0356 59.123 16.4274 59.2012C18.0471 59.5405 20.6091 60.0246 22.1556 60.0246C23.7101 60.0246 26.2693 59.5405 27.8862 59.1979C28.2762 59.1199 28.6174 58.8883 28.8306 58.5566C29.0437 58.225 29.1103 57.822 29.0151 57.4408C29.0182 57.44 29.0182 57.4399 29.0182 57.4399C28.9809 57.2911 28.8288 57.2 28.6778 57.2358C27.6657 57.4733 24.0875 58.2796 22.1556 58.2796C20.2317 58.2796 16.6416 57.4718 15.631 57.235C15.481 57.1996 15.3303 57.2901 15.2936 57.4378L15.2933 57.438Z" fill="#F5F5F5"/>
<path fill-rule="evenodd" clip-rule="evenodd" d="M4.84067 13.3695L4.80279 13.3115L4.78984 13.3381L4.82665 13.398L4.78984 13.3391C4.4369 14.0458 4.10285 14.7752 3.7868 15.5262L3.82769 15.5852L3.7868 15.5272L3.77288 15.5606L3.8127 15.6206L3.7719 15.5616C1.88357 20.0538 0.63823 25.2911 0.252388 30.9364C0.205529 31.6186 0.170704 32.3057 0.149767 32.9987L0.207601 33.0577L0.149767 32.9997L0.148696 33.0301L0.20653 33.0901L0.148696 33.0311C0.129753 33.5855 0.12085 34.1439 0.12085 34.7051C0.12085 37.6305 0.351174 40.4693 0.784872 43.1834L0.844654 43.2335L0.784872 43.1843L0.791785 43.2227C0.790788 43.2207 0.790835 43.2178 0.789838 43.2158L0.918456 43.9884L1.09984 44.9665L1.16469 45.282C1.17067 45.3095 1.19663 45.3302 1.22554 45.3292L14.4378 44.9753C14.4717 44.9743 14.4976 44.9468 14.4966 44.9144L14.4907 44.7089C14.4917 44.4249 14.5077 44.1447 14.5396 43.8695C14.5396 43.8705 14.5396 43.8714 14.5396 43.8724L14.5415 43.8557C14.6502 42.8924 14.9443 41.9831 15.388 41.1643L15.387 41.1653L15.3979 41.1456L15.3989 41.1447C15.5644 40.8399 15.7509 40.547 15.9573 40.2698L15.9563 40.2708L15.9672 40.256C16.5196 39.5109 17.2075 38.8691 17.9951 38.3667L17.9942 38.3677L18.0141 38.355C18.3042 38.1692 18.6093 38.004 18.9253 37.8585H18.9244L18.9413 37.8517C19.7609 37.4762 20.6591 37.2412 21.6053 37.1754C21.6043 37.1754 21.6023 37.1754 21.6013 37.1754L21.6273 37.1734H21.6262H21.6283C21.8017 37.1596 21.9782 37.1538 22.1557 37.1538C22.3272 37.1538 22.4977 37.1587 22.6671 37.1724L22.6881 37.1734C22.6861 37.1734 22.6851 37.1734 22.6841 37.1734C23.6302 37.2353 24.5305 37.4683 25.3511 37.8428L25.372 37.8517H25.371C25.6881 37.9962 25.9922 38.1613 26.2843 38.3461L26.2992 38.3559L26.2973 38.355C27.0869 38.8543 27.7768 39.4952 28.3311 40.2383L28.3451 40.257L28.3441 40.256C28.5515 40.5332 28.7379 40.8252 28.9044 41.1299L28.9134 41.1456C29.3601 41.9664 29.6572 42.8776 29.7689 43.8439L29.7708 43.8596C29.7698 43.8587 29.7698 43.8577 29.7698 43.8557C29.8037 44.1359 29.8197 44.4209 29.8197 44.7089L29.8147 44.9144C29.8137 44.9468 29.8406 44.9743 29.8735 44.9753L43.0858 45.3292C43.1148 45.3302 43.1407 45.3095 43.1467 45.282L43.2114 44.9655L43.3939 43.9874L43.5215 43.2148C43.9582 40.492 44.1905 37.6413 44.1905 34.7051C44.1905 34.1537 44.1826 33.6052 44.1637 33.0596L44.1626 33.0331C44.1436 32.3391 44.1088 31.649 44.0619 30.9659L44.0589 30.9344C43.675 25.301 42.4328 20.0754 40.5505 15.5881L40.5395 15.5616C40.2234 14.8106 39.8894 14.0802 39.5385 13.3725L39.5225 13.3391C38.3062 10.8826 36.8835 8.69547 35.3002 6.84353C31.6203 2.53808 27.065 0.0245934 22.1557 0.0245934C17.2464 0.0245934 12.6921 2.53808 9.01116 6.84353C7.43389 8.68859 6.01613 10.8649 4.80377 13.3106L4.84067 13.3695ZM1.67517 33.8834C1.67517 33.8834 9.16763 37.8851 12.5904 39.7125C13.4867 40.1912 13.9174 41.2253 13.6223 42.1866C13.6084 42.1817 13.6083 42.1817 13.6083 42.1817C13.3251 43.0949 12.4488 43.7014 11.4817 43.6542C8.37899 43.5156 2.35613 43.2207 2.35613 43.2207C1.90549 40.5028 1.66816 37.6482 1.66816 34.7061L1.67517 33.8834ZM41.9562 43.2207C41.9562 43.2207 36.0131 43.5117 32.8935 43.665C31.9074 43.7132 31.0161 43.088 30.7389 42.1532C30.7419 42.1522 30.7419 42.1522 30.7419 42.1522C30.4588 41.1948 30.8915 40.1735 31.7798 39.6977C35.2235 37.8527 42.6362 33.8873 42.6362 33.8873L42.6442 34.7061C42.6442 37.6482 42.4059 40.5028 41.9562 43.2207ZM0.805806 43.2472C0.811788 43.2522 0.818689 43.2571 0.825668 43.26C0.832647 43.263 0.840646 43.2649 0.849619 43.2649C0.849619 43.2649 0.823752 43.264 0.805806 43.2472ZM0.858577 43.263V43.264C0.855586 43.2649 0.85261 43.2649 0.849619 43.2649C0.849619 43.2649 0.853592 43.264 0.858577 43.263ZM0.791785 43.2227C0.791785 43.2237 0.792759 43.2237 0.792759 43.2246V43.2256L0.791785 43.2227ZM15.8835 40.2688C15.8885 40.2727 15.8945 40.2757 15.9004 40.2777L15.9084 40.2944C15.8955 40.2944 15.8835 40.2895 15.8736 40.2826L15.8835 40.2688ZM1.75092 31.7257C2.04204 26.4353 3.10782 21.4968 4.76784 17.2071C5.55747 18.4742 13.4768 31.188 16.3222 35.754C16.8476 36.5994 16.7071 37.6905 15.9822 38.3785C15.9713 38.3667 15.9712 38.3667 15.9712 38.3667C15.2853 39.0145 14.2445 39.1286 13.4309 38.6449C9.9653 36.6052 1.75092 31.7257 1.75092 31.7257ZM39.5435 17.2071C39.5435 17.2071 31.028 30.8764 28.036 35.6793C27.5036 36.5345 27.6492 37.6393 28.386 38.3323C28.388 38.3304 28.388 38.3304 28.388 38.3304C29.0849 38.985 30.1398 39.0991 30.9653 38.6095C34.4628 36.5345 42.5605 31.7238 42.5605 31.7238C42.2683 26.4334 41.2036 21.4968 39.5435 17.2071ZM21.0101 1.60621C16.9742 1.96401 13.2633 4.23568 10.1935 7.82553C8.50561 9.80034 7.01318 12.1703 5.76991 14.8509C5.76991 14.8509 14.6622 30.2601 17.5206 35.2133C17.9991 36.043 18.9832 36.4519 19.9194 36.2111C19.9144 36.1954 19.9144 36.1953 19.9144 36.1953C20.8536 35.9496 21.5026 35.1062 21.4877 34.1478C21.3979 27.1028 21.0101 1.60621 21.0101 1.60621ZM23.3013 1.60621C23.3013 1.60621 22.9134 27.1254 22.8068 34.1566C22.7918 35.117 23.4458 35.9614 24.388 36.2012C24.3929 36.1835 24.3929 36.1836 24.3929 36.1836C25.3301 36.4185 26.3112 36.0066 26.7888 35.178C29.6801 30.207 38.5415 14.8509 38.5415 14.8509L38.5405 14.847C37.2972 12.1683 35.8047 9.79936 34.1177 7.82553C31.0489 4.23568 27.3372 1.96401 23.3013 1.60621ZM23.2743 1.54428C23.2633 1.57278 23.2425 1.6003 23.2425 1.6003L23.2983 1.54625L23.2903 1.54526L23.2743 1.54428Z" fill="#F5F5F5"/>
</svg>
